# xmcd CD database file
#
# Track frame offsets:
#	150
#	23148
#	42446
#	56079
#	73832
#	88975
#	105577
#	117340
#	133615
#	154289
#	174728
#	205672
#	225726
#	242067
#	257012
#	274195
#
# Disc length: 3944 seconds
#
# Revision: 0
# Processed by: cddbd v1.5.2PL0 Copyright (c) Steve Scherf et al.
# Submitted via: CDex 1.51
#
DISCID=ea0f6610
DTITLE=Various Artist - JAZZ FOR LOVERS
DYEAR=2006
DGENRE=Jazz
TTITLE0=Eldissa-Can't Take My Eyes Off You
TTITLE1=Jorgen Emborg-If You Please
TTITLE2=Caroline Henderson-Monday Date
TTITLE3=Malene Mortensen-All I Want
TTITLE4=The Piano-Before We Say Goodbye
TTITLE5=Mads Hansen-Happy
TTITLE6=Jens Lysdal-My Girl Friend
TTITLE7=String Swing-Blue Hat
TTITLE8=Uffe Steen Trio-It Could Happen To You
TTITLE9=Hans Ulrik-Love Is Here To Stay
TTITLE10=Katrine Madsen-Just Close Your Eyes
TTITLE11=Francien Van Tuinen-On A Summer's Day
TTITLE12=Fini Hostrup-Snow Bossa
TTITLE13=Veronica Mortensen-If
TTITLE14=Niels HP-If You Fall
TTITLE15=Ridin' Thumb-Rainy Monday
EXTD=YEAR: 2006
EXTT0=
EXTT1=
EXTT2=
EXTT3=
EXTT4=
EXTT5=
EXTT6=
EXTT7=
EXTT8=
EXTT9=
EXTT10=
EXTT11=
EXTT12=
EXTT13=
EXTT14=
EXTT15=
PLAYORDER=
